#!OML:ASF C:\ViconDB\ViconDB\414\Spring2016\041811\Spring2016.ASF
:FULLY-SPECIFIED
:DEGREES
399
root 12.2597 17.5768 -22.4086 -178.99 -10.9701 -166.768
lowerback -0.854717 -0.571477 1.71177
upperback 0.580704 -0.927683 3.18363
thorax 1.10188 -0.511078 2.28832
lowerneck -15.9689 4.20523 -0.550386
upperneck 26.3032 1.04893 12.4031
head 11.0953 1.37533 4.68958
rclavicle -1.81888e-014 -7.95139e-016
rhumerus -90.6376 35.7603 -120.559
rradius 88.9747
rwrist 22.8008
rhand -44.5764 -3.08615
rfingers 7.12502
rthumb -17.376 -32.3295
lclavicle -1.81888e-014 -7.95139e-016
lhumerus -85.1305 -44.8027 122.28
lradius 76.8607
lwrist -33.3458
lhand -46.7761 -0.196784
lfingers 7.12502
lthumb -19.4921 28.8462
rfemur 332.761 -265.404 29.5907
rtibia 41.6207
rfoot -101.863 -43.9751
rtoes -9.70069e-014
lfemur -45.7059 -0.438832 -2.23824
ltibia 61.4145
lfoot -10.5226 -4.23527
ltoes -1.90833e-014
400
root 12.2752 17.5547 -22.6129 -178.917 -11.2867 -166.263
lowerback -0.973609 -0.470673 1.66096
upperback 0.533912 -0.799222 3.26126
thorax 1.11892 -0.448861 2.39823
lowerneck -15.995 4.1344 -0.663188
upperneck 26.1453 0.927472 12.6656
head 11.0485 1.33982 4.78423
rclavicle 2.27608e-014 -6.36111e-015
rhumerus -90.876 35.7213 -120.756
rradius 88.9288
rwrist 22.3532
rhand -44.3622 -3.04415
rfingers 7.12502
rthumb -17.1699 -32.3055
lclavicle 2.27608e-014 -6.36111e-015
lhumerus -85.0524 -44.784 122.21
lradius 77.2037
lwrist -33.9959
lhand -46.5426 0.57694
lfingers 7.12502
lthumb -19.2675 29.6425
rfemur 320.909 -266.919 18.3827
rtibia 41.4375
rfoot -103.262 -43.6311
rtoes -5.725e-014
lfemur -46.6345 -0.809826 -1.66308
ltibia 58.6037
lfoot -10.7915 -3.99472
ltoes -8.5875e-014
401
root 12.3066 17.5255 -22.7713 -179.547 -10.9788 -166.365
lowerback 0.454405 -0.215457 0.820144
upperback 0.585719 -0.395644 3.19003
thorax 0.363074 -0.245758 2.8127
lowerneck -16.1349 4.16191 -0.723806
upperneck 26.0469 0.863898 13.0827
head 11.044 1.35381 4.94217
rclavicle 1.42131e-014 -2.38542e-015
rhumerus -91.251 35.9137 -121.121
rradius 88.8975
rwrist 21.9351
rhand -44.5051 -2.67363
rfingers 7.12502
rthumb -17.3074 -31.923
lclavicle 1.42131e-014 -2.38542e-015
lhumerus -84.9444 -44.7399 122.075
lradius 77.6337
lwrist -33.8885
lhand -45.9383 0.0750182
lfingers 7.12502
lthumb -18.6864 29.1975
rfemur 310.101 -265.309 7.70136
rtibia 41.2628
rfoot -101.765 -44.0026
rtoes 6.52014e-014
lfemur -46.4197 -1.02276 -1.62088
ltibia 55.492
lfoot -10.6294 -4.04523
ltoes 4.77083e-014
402
root 12.32 17.5108 -22.9703 -179.456 -11.0286 -165.918
lowerback 0.426625 -0.0483659 0.726969
upperback 0.540178 -0.172933 3.23722
thorax 0.322767 -0.134741 2.91366
lowerneck -16.2917 4.15846 -0.772119
upperneck 25.946 0.780365 13.4226
head 11.0447 1.35328 5.06749
rclavicle 1.55052e-014 1.11319e-014
rhumerus -91.6124 36.1206 -121.451
rradius 88.7859
rwrist 22.2904
rhand -44.9683 -3.88668
rfingers 7.12502
rthumb -17.7532 -33.0963
lclavicle 1.55052e-014 1.11319e-014
lhumerus -84.7863 -44.7789 121.883
lradius 78.1308
lwrist -33.8314
lhand -45.4206 0.200661
lfingers 7.12502
lthumb -18.1884 29.3703
rfemur 301.804 -265.424 -0.0970408
rtibia 40.9413
rfoot -101.975 -44.2521
rtoes -3.02153e-014
lfemur -46.9769 -1.21581 -1.04489
ltibia 52.3301
lfoot -10.4397 -4.27451
ltoes 5.24792e-014
403
root 12.3316 17.5011 -23.1839 -179.263 -11.2141 -165.96
lowerback 0.199797 0.0643 0.216095
upperback 0.494498 -0.0116918 3.10635
thorax 0.395465 -0.049369 3.06624
lowerneck -16.3347 4.13004 -0.694802
upperneck 25.8054 0.673574 13.6211
head 11.0135 1.33353 5.10848
rclavicle -3.47873e-015 -2.38542e-014
rhumerus -91.882 36.1582 -121.815
rradius 88.6177
rwrist 22.268
rhand -45.2716 -3.93862
rfingers 7.12502
rthumb -18.045 -33.1215
lclavicle -3.47873e-015 -2.38542e-014
lhumerus -84.6394 -44.7577 121.661
lradius 78.5387
lwrist -33.7938
lhand -44.8986 -0.25095
lfingers 7.12502
lthumb -17.6861 28.9647
rfemur 290.713 -265.58 -11.2643
rtibia 40.5381
rfoot -102.51 -44.4399
rtoes 1.19271e-013
lfemur -47.3424 -1.61708 -1.02671
ltibia 49.0548
lfoot -9.99868 -4.41828
ltoes 6.75868e-014
404
root 12.337 17.4986 -23.3918 -178.903 -11.3064 -165.952
lowerback -0.173749 0.149374 -0.302901
upperback 0.429274 0.109815 3.0331
thorax 0.530729 0.0137881 3.28428
lowerneck -16.339 4.13807 -0.647354
upperneck 25.5399 0.636059 13.8759
head 10.9208 1.34742 5.17644
rclavicle -3.67752e-014 1.11319e-014
rhumerus -92.2166 36.4548 -122.245
rradius 88.6369
rwrist 21.3188
rhand -44.8333 -3.04337
rfingers 7.12502
rthumb -17.6232 -32.2647
lclavicle -3.67752e-014 1.11319e-014
lhumerus -84.1844 -44.6021 121.146
lradius 78.7882
lwrist -34.5153
lhand -44.441 -0.158784
lfingers 7.12502
lthumb -17.2457 29.096
rfemur 287.932 -265.31 -14.0911
rtibia 40.1147
rfoot -102.325 -44.682
rtoes 4.6118e-014
lfemur -47.7854 -1.8377 -0.963891
ltibia 45.8325
lfoot -9.39701 -4.82864
ltoes 4.6118e-014
405
root 12.3394 17.498 -23.6028 -178.778 -11.3122 -165.624
lowerback -0.383243 0.312714 -0.280354
upperback 0.401682 0.330449 2.94918
thorax 0.60741 0.126053 3.18717
lowerneck -16.3976 4.10876 -0.624416
upperneck 25.3166 0.511858 14.2156
head 10.8636 1.32731 5.27309
rclavicle -3.97569e-015 -4.45278e-014
rhumerus -92.6606 36.6323 -122.843
rradius 88.5126
rwrist 21.5587
rhand -45.3373 -3.92481
rfingers 7.12502
rthumb -18.1082 -33.1019
lclavicle -3.97569e-015 -4.45278e-014
lhumerus -83.9505 -44.6484 120.774
lradius 79.1536
lwrist -34.7326
lhand -44.1966 -0.0764888
lfingers 7.12502
lthumb -17.0104 29.1987
rfemur 287.665 -264.607 -14.1134
rtibia 39.6202
rfoot -101.6 -44.9947
rtoes 3.49861e-014
lfemur -47.8943 -2.15979 -0.453291
ltibia 42.6409
lfoot -8.56906 -5.21665
ltoes 5.56597e-014
406
root 12.3015 17.4891 -23.7839 -178.024 -11.7618 -165.863
lowerback -0.898802 0.309091 -0.129609
upperback 0.170523 0.340871 2.59125
thorax 0.662019 0.140968 2.73502
lowerneck -16.4377 4.1277 -0.629176
upperneck 25.1046 0.463199 14.5648
head 10.7992 1.33942 5.3878
rclavicle -2.82274e-014 -3.18055e-015
rhumerus -92.9646 36.8202 -123.381
rradius 88.2598
rwrist 21.7579
rhand -45.7902 -4.43967
rfingers 7.12502
rthumb -18.5439 -33.5758
lclavicle -2.82274e-014 -3.18055e-015
lhumerus -83.5823 -44.5754 120.335
lradius 79.2932
lwrist -35.2351
lhand -44.1915 -0.162613
lfingers 7.12502
lthumb -17.0056 29.113
rfemur 286.778 -264.733 -15.4513
rtibia 39.2049
rfoot -101.476 -45.4928
rtoes 2.22639e-014
lfemur -48.736 -3.04355 -0.525713
ltibia 39.5841
lfoot -7.53802 -5.51793
ltoes -1.63799e-013
407
root 12.3094 17.4918 -23.9756 -178.233 -11.6492 -166.374
lowerback -0.306269 0.491657 -1.02932
upperback 0.232565 0.613352 2.35522
thorax 0.373034 0.284113 2.99724
lowerneck -16.456 4.08521 -0.691034
upperneck 24.8314 0.386352 14.8419
head 10.7095 1.32645 5.47765
rclavicle -1.59028e-014 9.54166e-015
rhumerus -93.2519 36.9946 -123.876
rradius 87.9512
rwrist 22.2573
rhand -46.2023 -5.43355
rfingers 7.12502
rthumb -18.9403 -34.5314
lclavicle -1.59028e-014 9.54166e-015
lhumerus -83.1474 -44.5363 119.855
lradius 79.446
lwrist -35.8623
lhand -43.9375 -0.141239
lfingers 7.12502
lthumb -16.761 29.1553
rfemur 294.17 -262.617 -8.64015
rtibia 38.6158
rfoot -98.6071 -46.2055
rtoes -3.65764e-014
lfemur -48.1513 -3.89793 -0.68899
ltibia 36.7687
lfoot -6.70777 -5.48085
ltoes 2.05146e-013
408
root 12.2999 17.493 -24.1895 -178.08 -11.5763 -166.421
lowerback -0.508882 0.631349 -1.29618
upperback 0.221865 0.809539 2.20385
thorax 0.462439 0.38403 2.99504
lowerneck -16.4058 4.13897 -0.471327
upperneck 24.5585 0.459162 14.8303
head 10.5976 1.37758 5.42747
rclavicle 8.64713e-015 -3.18055e-014
rhumerus -93.6909 37.1503 -124.532
rradius 88.0083
rwrist 21.2782
rhand -46.1045 -5.29934
rfingers 7.12502
rthumb -18.8462 -34.4064
lclavicle 8.64713e-015 -3.18055e-014
lhumerus -82.6868 -44.4347 119.353
lradius 79.5829
lwrist -35.9794
lhand -43.6116 -0.573653
lfingers 7.12502
lthumb -16.4473 28.7491
rfemur 299.066 -260.892 -3.93582
rtibia 38.0084
rfoot -96.3774 -46.2394
rtoes 1.145e-013
lfemur -47.9689 -4.61669 -0.344673
ltibia 34.3317
lfoot -6.36932 -5.30841
ltoes -1.68569e-013
409
root 12.2822 17.488 -24.4066 -177.924 -11.5939 -165.827
lowerback -0.938476 0.727559 -0.872756
upperback 0.197199 0.928589 2.26557
thorax 0.676398 0.44072 2.82687
lowerneck -16.3772 4.13774 -0.610379
upperneck 24.3512 0.457701 15.0979
head 10.5136 1.38853 5.53809
rclavicle 2.67365e-014 2.22639e-014
rhumerus -93.9439 37.3479 -124.991
rradius 87.7458
rwrist 20.8281
rhand -46.3397 -5.1227
rfingers 7.12502
rthumb -19.0724 -34.2076
lclavicle 2.67365e-014 2.22639e-014
lhumerus -82.2587 -44.2201 118.897
lradius 79.8487
lwrist -35.902
lhand -43.425 -0.667391
lfingers 7.12502
lthumb -16.2676 28.6702
rfemur 303.797 -259.036 1.23959
rtibia 37.2448
rfoot -93.7718 -46.9019
rtoes -1.03368e-013
lfemur -48.0028 -5.37127 0.763667
ltibia 32.2764
lfoot -6.5134 -4.80806
ltoes -1.65389e-013
